<?xml version="1.0" encoding="utf-8"?>
<!-- Generator: Adobe Illustrator 21.0.0, SVG Export Plug-In . SVG Version: 6.00 Build 0)  -->
<svg version="1.1" id="Layer_1" xmlns="http://www.w3.org/2000/svg" xmlns:xlink="http://www.w3.org/1999/xlink" x="0px" y="0px"
	 viewBox="0 0 368.1 119.9" style="enable-background:new 0 0 368.1 119.9;" xml:space="preserve">
<style type="text/css">
	.st0{fill:#4E9A47;}
	.st1{fill:#11519E;}
</style>
<g>
	<g>
		<path class="st0" d="M112.7,40c-8.4,0-16.9,0-25.3,0c-4.8,0-7.4-2.7-7.4-7.5c0-8.5,0-17,0-25.5c0-3.7-2.4-6.9-5.6-6.9
			C68,0,61.7-0.1,55.5,0.5c-5,0.4-9.2,2.8-12,7.1c-4.7,7.3-4.1,15-1,22.5C46.1,39,52.4,46,59,52.8c0.7,0.7,16.4,17,21,25.3
			c0.3,0.5,0.6,1.1,1,1.6c2.7,4.6,3.8,9.8,4.3,15.1c0-0.2,0.1-0.5,0.1-0.7c-0.3-3.5-0.5-7.1-0.8-10.6c-0.2-3.1,0.3-3.7,3.4-3.7
			c8.3,0,16.7,0,25,0c4.5,0,7.1-2.6,7.1-7.1c0-8.4,0-16.9,0-25.3C120,42.6,117.4,40,112.7,40z"/>
		<path class="st1" d="M62.4,68.1L62.4,68.1c-7.2-8-15.1-16.2-16.6-18.4c0,0,0,0,0,0c-2.5-3.1-4.4-6.1-6.3-9.3
			c-3-5.1-4.4-10.8-4.5-16.8c-0.3,1.8-0.4,3.6-0.3,5.5c0.2,2.7,0.6,5.4,0.8,8.1c0.1,2.4-0.3,2.8-2.8,2.8c-8.4,0-16.9,0.1-25.3,0
			c-4.2-0.1-7.5,2.8-7.4,7.2c0.2,8.4,0.2,16.8,0,25.2c-0.1,4.6,2.9,7.6,7.4,7.5c8.3-0.1,16.7,0,25,0c5.1,0,7.7,2.6,7.7,7.7
			c0,8.4,0,16.9,0,25.3c0,4.4,2.7,7.1,7.1,7.1c4.8,0,9.6,0.2,14.5-0.1c7.7-0.4,13.9-3.5,17-11c2.2-5.4,1.9-11,0.1-16.4
			C75.6,82.6,69.1,75.2,62.4,68.1z"/>
	</g>
	<g>
		<path class="st1" d="M138.9,40.5H150l11.4,23l11.3-23h11.1v39.3h-9.1l-0.1-24.9l-10,20.9h-6.6L148,54.8v24.9h-9.1V40.5z"/>
		<path class="st1" d="M216.1,53.4c2.7,2.9,4,6.9,4,12c0,0.8,0,1.4-0.1,1.8H199c0.5,1.7,1.3,3,2.5,3.9c1.2,0.9,2.7,1.4,4.4,1.4
			c1.3,0,2.6-0.3,3.8-0.8c1.2-0.5,2.3-1.3,3.3-2.3l5.2,5.2c-1.6,1.8-3.5,3.1-5.7,4c-2.2,0.9-4.7,1.4-7.5,1.4c-3.2,0-6.1-0.6-8.5-1.9
			c-2.4-1.3-4.3-3.1-5.6-5.4c-1.3-2.3-1.9-5-1.9-8.1c0-3.1,0.7-5.8,2-8.2c1.3-2.4,3.2-4.2,5.5-5.5c2.4-1.3,5.2-1.9,8.3-1.9
			C209.7,49.1,213.5,50.5,216.1,53.4z M210.4,61.9c0-1.8-0.5-3.2-1.5-4.2c-1-1.1-2.4-1.6-4.1-1.6c-1.6,0-2.9,0.5-3.9,1.6
			c-1.1,1-1.8,2.5-2.1,4.3H210.4z"/>
		<path class="st1" d="M255.8,38.2v41.6h-10v-3.9c-1,1.4-2.3,2.5-3.8,3.2s-3.2,1.1-5.1,1.1c-2.8,0-5.3-0.7-7.4-2
			c-2.1-1.3-3.8-3.1-5-5.5c-1.2-2.4-1.8-5.1-1.8-8.2c0-3.1,0.6-5.7,1.7-8.1c1.2-2.3,2.8-4.1,4.9-5.4c2.1-1.3,4.5-1.9,7.3-1.9
			c1.9,0,3.7,0.4,5.2,1.1c1.5,0.7,2.9,1.8,3.9,3.2V38.2H255.8z M244,70.2c1.2-1.4,1.8-3.2,1.8-5.5c0-2.3-0.6-4.1-1.8-5.5
			c-1.2-1.4-2.8-2.1-4.7-2.1c-1.9,0-3.5,0.7-4.7,2.1c-1.2,1.4-1.8,3.2-1.8,5.5c0,2.2,0.6,4.1,1.8,5.5c1.2,1.4,2.8,2.1,4.7,2.1
			C241.3,72.3,242.8,71.6,244,70.2z"/>
		<path class="st1" d="M301.4,79.7h-12.3l-10.3-15.2l-4.9,5.5v9.7h-10.2V40.5h10.2v17l14.7-17h11.9L286,56.6L301.4,79.7z"/>
		<path class="st1" d="M330.3,53.4c2.7,2.9,4,6.9,4,12c0,0.8,0,1.4-0.1,1.8h-21.1c0.5,1.7,1.3,3,2.5,3.9c1.2,0.9,2.7,1.4,4.4,1.4
			c1.3,0,2.6-0.3,3.8-0.8c1.2-0.5,2.3-1.3,3.3-2.3l5.2,5.2c-1.6,1.8-3.5,3.1-5.7,4c-2.2,0.9-4.7,1.4-7.5,1.4c-3.2,0-6.1-0.6-8.5-1.9
			c-2.4-1.3-4.3-3.1-5.6-5.4c-1.3-2.3-1.9-5-1.9-8.1c0-3.1,0.7-5.8,2-8.2c1.3-2.4,3.2-4.2,5.5-5.5c2.4-1.3,5.2-1.9,8.3-1.9
			C323.9,49.1,327.7,50.5,330.3,53.4z M324.6,61.9c0-1.8-0.5-3.2-1.5-4.2c-1-1.1-2.4-1.6-4.1-1.6c-1.6,0-2.9,0.5-3.9,1.6
			c-1.1,1-1.8,2.5-2.1,4.3H324.6z"/>
		<path class="st1" d="M364.1,53.4c2.7,2.9,4,6.9,4,12c0,0.8,0,1.4-0.1,1.8h-21.1c0.5,1.7,1.3,3,2.5,3.9c1.2,0.9,2.7,1.4,4.4,1.4
			c1.3,0,2.6-0.3,3.8-0.8c1.2-0.5,2.3-1.3,3.3-2.3l5.2,5.2c-1.6,1.8-3.5,3.1-5.7,4c-2.2,0.9-4.7,1.4-7.5,1.4c-3.2,0-6.1-0.6-8.5-1.9
			c-2.4-1.3-4.3-3.1-5.6-5.4c-1.3-2.3-1.9-5-1.9-8.1c0-3.1,0.7-5.8,2-8.2c1.3-2.4,3.2-4.2,5.5-5.5c2.4-1.3,5.2-1.9,8.3-1.9
			C357.6,49.1,361.4,50.5,364.1,53.4z M358.4,61.9c0-1.8-0.5-3.2-1.5-4.2c-1-1.1-2.4-1.6-4.1-1.6c-1.6,0-2.9,0.5-3.9,1.6
			c-1.1,1-1.8,2.5-2.1,4.3H358.4z"/>
	</g>
</g>
</svg>
